<?xml version="1.0"?>
<svg width="290" height="75" xmlns="http://www.w3.org/2000/svg" xmlns:svg="http://www.w3.org/2000/svg" data-bbox="31.42216632048303 116.44930932862142 440.34868961428487 278.54943755135156">
 <g class="layer">
  <title>Layer 1</title>
  <rect data-uid="o_fdc001a14_6" fill="#000000" height="75" id="svg_1" width="290" x="0" y="0"/>
  <g data-uid="o_fdc001a14_7" id="svg_2" transform="matrix(1 0 0 1 0 0) matrix(0.486894 0 0 0.486894 84.0459 -36.0729)">
   <path d="m-87.98,91.48l-7.49,0l0,-4.93c0,-0.84 -0.68,-1.52 -1.52,-1.52l-12.6,0c-0.84,0 -1.52,0.68 -1.52,1.52l0,4.93l-7.49,0c-0.9,0 -1.78,0.3 -2.5,0.84l-4,3.06l43.6,0l-4,-3.06c-0.72,-0.55 -1.59,-0.84 -2.5,-0.84l0.02,0z" data-uid="o_fdc001a14_8" fill="rgba(233, 233, 233, 1)" id="svg_3" transform="matrix(1.74997 0 0 1.74997 132.031 51.9969)"/>
   <g data-uid="o_fdc001a14_9" fill="rgba(233, 233, 233, 1)" id="svg_4" transform="matrix(1.74997 0 0 1.74997 132.031 51.9969)">
    <path d="m-130.8,66.74c13.02,0 28.03,-3.19 42.26,-8.97c12.37,-5.03 22.94,-11.57 30.14,-18.52l0,-10.09c0,-5.07 -4.11,-9.18 -9.18,-9.18l-71.41,0c-5.07,0 -9.18,4.11 -9.18,9.18l0,34.99c4.59,1.69 10.49,2.6 17.37,2.6l0,-0.01z" data-uid="o_fdc001a14_10" fill="rgba(233, 233, 233, 1)" id="svg_5"/>
    <path d="m-91.21,71.85c-14.97,6.09 -31,9.44 -45.14,9.44c-3.97,0 -7.67,-0.26 -11.1,-0.77c1.39,3.3 4.65,5.61 8.46,5.61l71.41,0c5.07,0 9.18,-4.11 9.18,-9.18l0,-25.63c-7.92,7.8 -19.34,15.05 -32.81,20.53z" data-uid="o_fdc001a14_11" fill="rgba(233, 233, 233, 1)" id="svg_6"/>
   </g>
   <g data-uid="o_fdc001a14_12" fill="rgba(233, 233, 233, 1)" id="svg_7" transform="matrix(1.74997 0 0 1.74997 132.031 51.9969)">
    <path d="m-130.8,66.74c13.02,0 28.03,-3.19 42.26,-8.97c7.92,-3.22 15.11,-7.06 21.14,-11.23l0,-14.6c0,-1.64 -1.33,-2.96 -2.96,-2.96l-65.85,0c-1.63,0 -2.96,1.33 -2.96,2.96l0,34.3c2.59,0.33 5.39,0.51 8.37,0.51l0,-0.01z" data-uid="o_fdc001a14_13" fill="rgba(233, 233, 233, 1)" id="svg_8"/>
    <path d="m-91.21,71.85c-5.16,2.1 -10.45,3.86 -15.74,5.29l36.59,0c1.64,0 2.96,-1.33 2.96,-2.96l0,-15.3c-6.74,4.87 -14.82,9.32 -23.81,12.98l0,-0.01z" data-uid="o_fdc001a14_14" fill="rgba(233, 233, 233, 1)" id="svg_9"/>
   </g>
   <g data-uid="o_fdc001a14_15" fill="rgba(233,233,233,1)" id="svg_10" transform="matrix(1.74997 0 0 1.74997 132.031 51.9969)">
    <path d="m-79.63,34.33l4.94,0c0.5,0 0.9,0.4 0.9,0.9l0,4.94c0,0.8 -0.97,1.21 -1.54,0.64l-4.94,-4.94c-0.57,-0.57 -0.17,-1.54 0.64,-1.54z" data-uid="o_fdc001a14_16" fill="rgba(233,233,233,1)" id="svg_11"/>
    <path d="m-75.18,48.07l0,0c-0.81,0.81 -2.13,0.81 -2.94,0l-9.77,-9.77c-0.81,-0.81 -0.81,-2.13 0,-2.94l0,0c0.81,-0.81 2.13,-0.81 2.94,0l9.77,9.77c0.81,0.81 0.81,2.13 0,2.94z" data-uid="o_fdc001a14_17" fill="rgba(233,233,233,1)" id="svg_12"/>
   </g>
   <path d="m-87.42,60.55c-30.7,12.48 -62.85,12.22 -71.8,-0.6c-5.35,-7.66 -1.19,-18.07 9.59,-27.87l0,-1.92c-17.47,12.16 -25.38,26.77 -18.17,37.1c9.77,13.98 43.55,14.79 75.46,1.82c21.94,-8.92 37.29,-22.04 41.55,-33.91c-6.71,9.14 -19.66,18.49 -36.63,25.38z" data-uid="o_fdc001a14_18" fill="#3f40ea" id="svg_13" transform="matrix(1.74997 0 0 1.74997 132.031 51.9969)"/>
   <path class="cls-1" d="m-57.54,42.55c-7.24,6.62 -17.48,12.96 -29.87,18c-30.7,12.48 -62.85,12.22 -71.8,-0.6c-5.35,-7.66 -1.19,-18.07 9.59,-27.87l0,-1.92c-1.08,0.75 -2.12,1.51 -3.12,2.27c-11.68,10.63 -16.12,22.16 -10.13,30.73c9.77,13.98 43.55,14.79 75.46,1.82c9.83,-4 18.34,-8.84 25.12,-14.04c4.74,-4.32 8.27,-8.79 10.39,-13.15c-1.7,1.6 -3.59,3.19 -5.63,4.75l-0.01,0.01z" data-style-mix-blend-mode="multiply" data-uid="o_fdc001a14_19" fill="rgba(63,64,234,1)" id="svg_14" opacity="0.41" transform="matrix(1.74997 0 0 1.74997 132.031 51.9969)"/>
   <path d="m-39.5,28.18l-6.53,2.84l0.69,7.08l-4.72,-5.33l-6.52,2.84l3.6,-6.13l-4.71,-5.33l6.94,1.54l3.61,-6.13l0.69,7.08l6.95,1.54z" data-type="polygon" data-uid="o_fdc001a14_20" fill="rgba(63, 64, 234, 1)" id="svg_15" transform="matrix(1.74997 0 0 1.74997 132.031 51.9969)"/>
  </g>
  <path d="m138.26,18.85l0,2.64l-5.46,0l0,15.82l-3.01,0l0,-15.82l-5.46,0l0,-2.64l13.93,0zm13.37,7.91l0,2.64l-2.64,0l0,-3.01l-5.27,0l0,10.92l-2.64,0l0,-13.18l2.64,0l0,1.88l1.88,-1.88l3.39,0q1.09,0 1.87,0.77q0.77,0.78 0.77,1.87l0,0l0,-0.01zm16.76,0l0,10.54l-2.64,0l0,-1.92l-2.26,1.92l-5.65,0q-1.09,0 -1.87,-0.77q-0.77,-0.78 -0.77,-1.87l0,0l0,-2.64q0,-1.09 0.77,-1.87q0.78,-0.77 1.87,-0.77l0,0l7.53,0l-2.26,2.22l-5.27,0l0,3.43l7.91,0l0,-8.66l-10.54,0l2.26,-2.26l8.28,0q1.09,0 1.87,0.77q0.77,0.78 0.77,1.87l0,0l0,0.01zm18.45,-11.3l0,21.84l-2.64,0l0,-1.88l-1.88,1.88l-6.03,0q-1.09,0 -1.87,-0.77q-0.77,-0.78 -0.77,-1.87l0,0l0,-7.91q0,-1.09 0.77,-1.87q0.78,-0.77 1.87,-0.77l0,0l7.91,0l0,-6.03l2.64,-2.64l0,0.02zm-10.54,19.58l7.91,0l0,-10.54l-1.88,1.88l-6.03,0l0,8.66zm29.37,0l0,2.26l-10.54,0q-1.09,0 -1.87,-0.77q-0.77,-0.78 -0.77,-1.87l0,0l0,-7.91q0,-1.09 0.77,-1.87q0.78,-0.77 1.87,-0.77l0,0l7.91,0q1.09,0 1.87,0.77q0.77,0.78 0.77,1.87l0,0l0,2.64l-2.64,2.64l-7.53,0l2.26,-2.26l5.27,0l0,-3.39l-7.91,0l0,8.66l10.54,0zm20.71,-16.19l0,18.45l-3.01,0l0,-2.26l-2.26,2.26l-7.91,0q-1.09,0 -1.87,-0.77q-0.77,-0.78 -0.77,-1.87l0,0l0,-15.82l3.01,0l0,15.82l9.79,0l0,-15.82l3.01,0l0.01,0.01zm19.21,7.91l0,10.54l-2.64,0l0,-10.92l-7.91,0l0,10.92l-2.64,0l0,-13.18l2.64,0l0,1.88l1.88,-1.88l6.03,0q1.09,0 1.87,0.77q0.77,0.78 0.77,1.87l0,0zm7.91,-7.91l0,3.01l-2.64,0l0,-3.01l2.64,0zm0,4.52l0,13.93l-2.64,0l0,-11.3l2.64,-2.64l0,0.01zm13.93,11.67l0,2.26l-5.27,0q-1.09,0 -1.87,-0.77q-0.77,-0.78 -0.77,-1.87l0,0l0,-8.28l-3.77,0l2.26,-2.26l1.51,0l0,-2.64l2.64,-2.64l0,5.27l5.27,0l0,2.26l-5.27,0l0,8.66l5.27,0l0,0.01zm16.95,-10.92l0,18.45q0,1.09 -0.77,1.87q-0.78,0.77 -1.87,0.77l0,0l-10.92,0l2.26,-2.26l8.66,0l0,-7.53l-1.88,1.88l-6.03,0q-1.09,0 -1.87,-0.77q-0.77,-0.78 -0.77,-1.87l0,0l0,-10.54l2.64,0l0,10.92l7.91,0l0,-10.92l2.64,0z" data-uid="o_fdc001a14_21" fill="#e9e9e9" id="svg_16" transform="matrix(1 0 0 1 0 0)"/>
  <path d="m132.26,49.08l0,6.55l-1.21,0l0,-6.55l-2,0l0,-1l5.2,0l0,1l-2,0l0.01,0zm3.26,6.55l0,-7.95l1.18,-0.1l0,2.39q0.39,-0.26 0.85,-0.39q0.47,-0.13 1.09,-0.13l0,0q0.85,0 1.28,0.26q0.44,0.26 0.44,0.77l0,0l0,5.14l-1.21,0l0,-5.17l-1.4,0q-0.59,0 -0.81,0.14q-0.22,0.15 -0.22,0.56l0,0l0,4.47l-1.21,0l0.01,0.01zm9.17,-0.83q0.49,0 0.97,-0.07q0.47,-0.07 1.12,-0.22l0,0l0.16,0.88q-0.45,0.17 -1.11,0.27q-0.66,0.1 -1.36,0.1l0,0q-0.94,0 -1.44,-0.27q-0.5,-0.27 -0.7,-0.94q-0.21,-0.67 -0.21,-1.93l0,0q0,-1.22 0.24,-1.89q0.23,-0.67 0.78,-0.96q0.54,-0.29 1.54,-0.29l0,0q0.98,0 1.49,0.16q0.51,0.16 0.72,0.54q0.21,0.38 0.21,1.12l0,0q0,0.88 -0.25,1.27q-0.25,0.39 -1,0.52q-0.74,0.13 -2.45,0.13l0,0l0,1.46q0.48,0.13 1.29,0.13l0,0l0,-0.01zm-0.29,-4.34q-0.58,0 -0.79,0.14q-0.21,0.15 -0.21,0.56l0,0l0,1.26l1.6,0q0.59,0 0.8,-0.14q0.21,-0.15 0.21,-0.56l0,0l0,-1.26l-1.61,0zm10.54,-1.05q0.89,0 1.36,0.27q0.46,0.26 0.64,0.94q0.18,0.68 0.18,2l0,0q0,1.3 -0.2,1.96q-0.2,0.66 -0.71,0.92q-0.51,0.26 -1.51,0.26l0,0l-0.01,0q-0.73,0 -1.33,-0.09q-0.6,-0.08 -1.3,-0.29l0,0l0,-7.79l1.21,-0.15l0,2.25q0.28,-0.16 0.68,-0.22q0.4,-0.07 1,-0.07l0,0l-0.01,0.01zm0.91,5.11l0,-4.12l-2.03,0q-0.33,0 -0.44,0.06q-0.12,0.06 -0.12,0.24l0,0l0,4.06l2.03,0q0.31,0 0.44,-0.05q0.12,-0.06 0.12,-0.19l0,0zm5.29,0.28q0.49,0 0.97,-0.07q0.47,-0.07 1.12,-0.22l0,0l0.16,0.88q-0.45,0.17 -1.11,0.27q-0.66,0.1 -1.36,0.1l0,0q-0.94,0 -1.44,-0.27q-0.5,-0.27 -0.7,-0.94q-0.21,-0.67 -0.21,-1.93l0,0q0,-1.22 0.24,-1.89q0.23,-0.67 0.78,-0.96q0.54,-0.29 1.54,-0.29l0,0q0.98,0 1.49,0.16q0.51,0.16 0.72,0.54q0.21,0.38 0.21,1.12l0,0q0,0.88 -0.25,1.27q-0.25,0.39 -1,0.52q-0.74,0.13 -2.45,0.13l0,0l0,1.46q0.48,0.13 1.29,0.13l0,0l0,-0.01zm-0.29,-4.34q-0.58,0 -0.79,0.14q-0.21,0.15 -0.21,0.56l0,0l0,1.26l1.6,0q0.59,0 0.8,-0.14q0.21,-0.15 0.21,-0.56l0,0l0,-1.26l-1.61,0zm4.22,0.75q0,-0.93 0.55,-1.37q0.55,-0.44 1.74,-0.44l0,0q1.05,0 2.01,0.27l0,0l-0.17,0.88q-0.3,-0.09 -0.72,-0.14q-0.41,-0.06 -0.76,-0.06l0,0q-0.73,0 -1.38,0.11l0,0l0,1.43q1.45,0.2 2.13,0.42q0.68,0.21 0.94,0.57q0.25,0.36 0.25,1.05l0,0q0,0.69 -0.25,1.1q-0.25,0.41 -0.8,0.6q-0.56,0.19 -1.49,0.19l0,0q-1.04,0 -2.19,-0.35l0,0l0.19,-0.97q0.93,0.36 1.98,0.36l0,0q0.36,0 0.64,-0.04q0.28,-0.04 0.64,-0.13l0,0l0,-1.43q-1.56,-0.22 -2.22,-0.42q-0.67,-0.2 -0.88,-0.55q-0.22,-0.35 -0.22,-1.08l0,0l0.01,0zm8.87,-0.79l-1.08,0l0,4.32q0.44,0.05 0.86,0.06l0,0l-0.07,0.82q-0.68,0.13 -1.1,0.13l0,0q-0.46,0 -0.68,-0.22q-0.22,-0.22 -0.22,-0.68l0,0l0,-4.43l-0.85,0l0,-0.83l0.85,0l0,-1.29l1.21,-0.3l0,1.6l1.08,0l0,0.83l0,-0.01zm7.54,-0.95q0.91,0 1.37,0.26q0.46,0.26 0.63,0.92q0.17,0.66 0.17,1.96l0,0q0,1.32 -0.18,1.99q-0.18,0.67 -0.64,0.94q-0.46,0.27 -1.36,0.27l0,0q-0.6,0 -1,-0.07q-0.4,-0.07 -0.68,-0.22l0,0l0,2.1l-1.21,0.15l0,-8.19l0.56,0l0.28,0.51q0.25,-0.36 0.73,-0.5q0.47,-0.13 1.33,-0.13l0,0l0,0.01zm0.91,5.05l0,-4.06l-2.03,0q-0.31,0 -0.44,0.05q-0.12,0.06 -0.12,0.19l0,0l0,4.12l2.03,0q0.33,0 0.44,-0.06q0.11,-0.06 0.11,-0.24l0,0l0.01,0zm4.23,0.22q0.24,0.04 0.56,0.06l0,0l-0.07,0.82q-0.45,0.13 -0.8,0.13l0,0q-0.46,0 -0.68,-0.22q-0.22,-0.22 -0.22,-0.68l0,0l0,-7.07l1.21,-0.18l0,7.15l0,-0.01zm4.38,-5.27q0.83,0 1.32,0.16q0.48,0.16 0.7,0.53q0.21,0.37 0.21,1l0,0l0,4.47l-0.56,0l-0.32,-0.6q-0.44,0.38 -0.96,0.55q-0.53,0.18 -1.2,0.18l0,0q-1,0 -1.43,-0.42q-0.42,-0.42 -0.42,-1.4l0,0q0,-0.88 0.24,-1.27q0.24,-0.39 0.95,-0.52q0.71,-0.13 2.32,-0.13l0,0l0.18,0l0,-1.46q-0.45,-0.13 -1.22,-0.13l0,0q-0.97,0 -2.04,0.29l0,0l-0.16,-0.88q0.45,-0.16 1.11,-0.26q0.67,-0.1 1.29,-0.1l0,0l-0.01,-0.01zm0.05,5.36q0.57,0 0.77,-0.14q0.2,-0.15 0.2,-0.56l0,0l0,-1.32l-1.61,0q-0.57,0 -0.78,0.14q-0.2,0.15 -0.2,0.56l0,0l0,1.32l1.62,0zm6.11,0.93q-0.89,0 -1.36,-0.27q-0.46,-0.26 -0.64,-0.92q-0.18,-0.66 -0.18,-1.95l0,0q0,-1.29 0.18,-1.96q0.18,-0.67 0.64,-0.92q0.46,-0.26 1.36,-0.26l0,0q0.5,0 1.03,0.06q0.54,0.06 0.93,0.16l0,0l-0.15,0.92q-0.87,-0.18 -1.68,-0.18l0,0q-0.59,0 -0.82,0.22q-0.23,0.22 -0.23,0.79l0,0l0,3.23q0.44,0.13 1.23,0.13l0,0q0.39,0 0.76,-0.07q0.37,-0.07 0.89,-0.22l0,0l0.13,0.88q-0.41,0.17 -0.96,0.27q-0.55,0.1 -1.13,0.1l0,0l0,-0.01zm5.87,-0.95q0.49,0 0.97,-0.07q0.47,-0.07 1.12,-0.22l0,0l0.16,0.88q-0.45,0.17 -1.11,0.27q-0.66,0.1 -1.36,0.1l0,0q-0.94,0 -1.44,-0.27q-0.5,-0.27 -0.7,-0.94q-0.21,-0.67 -0.21,-1.93l0,0q0,-1.22 0.24,-1.89q0.23,-0.67 0.78,-0.96q0.54,-0.29 1.54,-0.29l0,0q0.98,0 1.49,0.16q0.51,0.16 0.72,0.54q0.21,0.38 0.21,1.12l0,0q0,0.88 -0.25,1.27q-0.25,0.39 -1,0.52q-0.74,0.13 -2.45,0.13l0,0l0,1.46q0.48,0.13 1.29,0.13l0,0l0,-0.01zm-0.29,-4.34q-0.58,0 -0.79,0.14q-0.21,0.15 -0.21,0.56l0,0l0,1.26l1.6,0q0.59,0 0.8,-0.14q0.21,-0.15 0.21,-0.56l0,0l0,-1.26l-1.61,0zm10.52,-2l-1.29,-0.11l0,1.23l0.97,0l0,0.83l-0.97,0l0,5.21l-1.21,0l0,-5.21l-0.85,0l0,-0.83l0.85,0q0.05,-0.83 0.19,-1.29q0.14,-0.45 0.44,-0.64q0.3,-0.19 0.83,-0.19l0,0q0.58,0 1.11,0.12l0,0l-0.07,0.87l0,0.01zm3.42,7.29q-1.09,0 -1.64,-0.26q-0.55,-0.26 -0.77,-0.92q-0.22,-0.67 -0.22,-1.96l0,0q0,-1.29 0.22,-1.96q0.22,-0.67 0.77,-0.92q0.55,-0.26 1.64,-0.26l0,0q1.1,0 1.64,0.26q0.54,0.26 0.76,0.92q0.22,0.66 0.22,1.96l0,0q0,1.29 -0.22,1.96q-0.22,0.67 -0.77,0.92q-0.55,0.26 -1.64,0.26l0,0l0.01,0zm-1.37,-0.99l2.15,0q0.35,0 0.46,-0.06q0.12,-0.06 0.12,-0.24l0,0l0,-4l-2.15,0q-0.35,0 -0.47,0.06q-0.12,0.06 -0.12,0.24l0,0l0,4l0.01,0zm6.37,-5.17l0.42,0.95q0.54,-0.48 0.93,-0.75q0.39,-0.27 0.73,-0.39l0,0l0.12,1.18q-0.4,0.12 -0.83,0.33q-0.43,0.21 -0.73,0.44l0,0l0,4.27l-1.21,0l0,-6.05l0.57,0l0,0.02zm6.08,1.62q0,-0.93 0.55,-1.37q0.55,-0.44 1.74,-0.44l0,0q1.05,0 2.01,0.27l0,0l-0.17,0.88q-0.3,-0.09 -0.72,-0.14q-0.41,-0.06 -0.76,-0.06l0,0q-0.73,0 -1.38,0.11l0,0l0,1.43q1.45,0.2 2.13,0.42q0.68,0.21 0.94,0.57q0.25,0.36 0.25,1.05l0,0q0,0.69 -0.25,1.1q-0.25,0.41 -0.8,0.6q-0.56,0.19 -1.49,0.19l0,0q-1.04,0 -2.19,-0.35l0,0l0.19,-0.97q0.93,0.36 1.98,0.36l0,0q0.36,0 0.64,-0.04q0.28,-0.04 0.64,-0.13l0,0l0,-1.43q-1.56,-0.22 -2.22,-0.42q-0.67,-0.2 -0.88,-0.55q-0.22,-0.35 -0.22,-1.08l0,0l0.01,0zm6.23,4.43l0,-7.95l1.18,-0.1l0,2.39q0.39,-0.26 0.85,-0.39q0.47,-0.13 1.09,-0.13l0,0q0.85,0 1.28,0.26q0.44,0.26 0.44,0.77l0,0l0,5.14l-1.21,0l0,-5.17l-1.4,0q-0.59,0 -0.81,0.14q-0.22,0.15 -0.22,0.56l0,0l0,4.47l-1.21,0l0.01,0.01zm9.23,0.12q-1.09,0 -1.64,-0.26q-0.55,-0.26 -0.77,-0.92q-0.22,-0.67 -0.22,-1.96l0,0q0,-1.29 0.22,-1.96q0.22,-0.67 0.77,-0.92q0.55,-0.26 1.64,-0.26l0,0q1.1,0 1.64,0.26q0.54,0.26 0.76,0.92q0.22,0.66 0.22,1.96l0,0q0,1.29 -0.22,1.96q-0.22,0.67 -0.77,0.92q-0.55,0.26 -1.64,0.26l0,0l0.01,0zm-1.37,-0.99l2.15,0q0.35,0 0.46,-0.06q0.12,-0.06 0.12,-0.24l0,0l0,-4l-2.15,0q-0.35,0 -0.47,0.06q-0.12,0.06 -0.12,0.24l0,0l0,4l0.01,0zm8.69,-5.3q0.91,0 1.37,0.26q0.46,0.26 0.63,0.92q0.17,0.66 0.17,1.96l0,0q0,1.32 -0.18,1.99q-0.18,0.67 -0.64,0.94q-0.46,0.27 -1.36,0.27l0,0q-0.6,0 -1,-0.07q-0.4,-0.07 -0.68,-0.22l0,0l0,2.1l-1.21,0.15l0,-8.19l0.56,0l0.28,0.51q0.25,-0.36 0.73,-0.5q0.47,-0.13 1.33,-0.13l0,0l0,0.01zm0.91,5.05l0,-4.06l-2.03,0q-0.31,0 -0.44,0.05q-0.12,0.06 -0.12,0.19l0,0l0,4.12l2.03,0q0.33,0 0.44,-0.06q0.11,-0.06 0.11,-0.24l0,0l0.01,0zm5.97,-5.05q0.91,0 1.37,0.26q0.46,0.26 0.63,0.92q0.17,0.66 0.17,1.96l0,0q0,1.32 -0.18,1.99q-0.18,0.67 -0.64,0.94q-0.46,0.27 -1.36,0.27l0,0q-0.6,0 -1,-0.07q-0.4,-0.07 -0.68,-0.22l0,0l0,2.1l-1.21,0.15l0,-8.19l0.56,0l0.28,0.51q0.25,-0.36 0.73,-0.5q0.47,-0.13 1.33,-0.13l0,0l0,0.01zm0.91,5.05l0,-4.06l-2.03,0q-0.31,0 -0.44,0.05q-0.12,0.06 -0.12,0.19l0,0l0,4.12l2.03,0q0.33,0 0.44,-0.06q0.11,-0.06 0.11,-0.24l0,0l0.01,0zm2.95,1.11l0,0zm0.13,-5.96l1.21,-0.18l0,6.14l-1.21,0l0,-5.96zm0.62,-1.14q-0.45,0 -0.6,-0.15q-0.15,-0.15 -0.15,-0.57l0,0q0,-0.43 0.16,-0.59q0.16,-0.16 0.59,-0.16l0,0q0.42,0 0.57,0.16q0.15,0.16 0.15,0.59l0,0q0,0.42 -0.15,0.57q-0.14,0.15 -0.58,0.15l0,0l0.01,0zm2.77,7.1l0,-6.05l0.56,0l0.32,0.6q0.46,-0.38 1.01,-0.55q0.54,-0.18 1.24,-0.18l0,0q0.85,0 1.28,0.26q0.44,0.26 0.44,0.77l0,0l0,5.14l-1.21,0l0,-5.17l-1.4,0q-0.59,0 -0.81,0.14q-0.22,0.15 -0.22,0.56l0,0l0,4.47l-1.21,0l0,0.01zm8.98,-0.89q1,0.11 1.47,0.25q0.47,0.14 0.64,0.38q0.17,0.24 0.17,0.74l0,0q0,0.57 -0.23,0.9q-0.23,0.33 -0.76,0.48q-0.53,0.15 -1.42,0.15l0,0q-0.65,0 -1.28,-0.1q-0.62,-0.1 -1.07,-0.27l0,0l0.16,-0.92q0.63,0.16 1.07,0.22q0.44,0.07 0.9,0.07l0,0q0.93,0 1.55,-0.13l0,0l0,-0.9q-1.23,-0.07 -1.75,-0.19q-0.52,-0.12 -0.52,-0.33l0,0l0.33,-1.24q-0.69,-0.06 -1.08,-0.29q-0.39,-0.23 -0.57,-0.69q-0.18,-0.46 -0.18,-1.22l0,0q0,-0.86 0.22,-1.34q0.22,-0.48 0.73,-0.69q0.51,-0.21 1.43,-0.21l0,0q0.93,0 1.43,0.21l0,0l0.86,-0.65l0.6,0.59l-0.7,0.81q0.21,0.46 0.21,1.28l0,0q0,0.82 -0.2,1.29q-0.2,0.47 -0.67,0.69q-0.47,0.22 -1.29,0.24l0,0l-0.06,0.87l0.01,0zm-1.37,-3.79l0,2.12l1.5,0q0.5,0 0.69,-0.16q0.19,-0.16 0.19,-0.59l0,0l0,-2.12l-1.5,0q-0.5,0 -0.69,0.16q-0.19,0.16 -0.19,0.58l0,0l0,0.01zm5.5,2.31l-0.36,-5.21q0,-0.22 0.29,-0.22l0,0l0.89,0q0.3,0 0.3,0.22l0,0l-0.36,5.21l-0.76,0zm-0.4,1.62q0,-0.46 0.16,-0.64q0.16,-0.19 0.63,-0.19l0,0q0.46,0 0.62,0.19q0.16,0.19 0.16,0.64l0,0q0,0.46 -0.16,0.64q-0.16,0.18 -0.63,0.18l0,0q-0.47,0 -0.63,-0.18q-0.16,-0.18 -0.16,-0.64l0,0l0.01,0z" data-uid="o_fdc001a14_22" fill="#3f40ea" id="svg_17"/>
  <g data-uid="o_fdc001a14_23" id="svg_18" transform="matrix(0.063046 0 0 0.063046 117.048 9.39616)">
   <path d="m-86.13,19.55a1,1 0 0 0 -1.15,-0.81l-4.93,0.86a1,1 0 0 0 -0.81,1.16l0.22,1.21l-2.8,0.49l-1.69,-0.25l0,-14.82a4,4 0 0 0 -4,-4l-7,0l0,-2a3,3 0 0 0 -3,-3l-6,0a3,3 0 0 0 -3,3l0,2l-7,0a4,4 0 0 0 -4,4l0,14.82l-1.69,0.26l-2.79,-0.49l0.21,-1.22a1,1 0 0 0 -0.81,-1.16l-4.92,-0.86a1,1 0 0 0 -1.16,0.81l-3.82,21.66a1,1 0 0 0 0.81,1.16l4.92,0.87a1,1 0 0 0 1.16,-0.81l0.09,-0.54l0.83,0.15a13.05,13.05 0 0 0 3.25,4.39a3.97,3.97 0 0 0 2.88,4.05a3.98,3.98 0 0 0 5.65,5.34a3.96,3.96 0 0 0 6.15,2.67a3.96,3.96 0 0 0 5.64,2.96l0,0.01l0.4,0.26a4,4 0 0 0 5.54,-1.12a3.92,3.92 0 0 0 0.65,-2.25a3.93,3.93 0 0 0 0.99,0.14a3.99,3.99 0 0 0 4.01,-4.03a3.96,3.96 0 0 0 0.97,0.13a4,4 0 0 0 4,-4.03a3.97,3.97 0 0 0 4.96,-4.12a13.03,13.03 0 0 0 3.25,-4.4l0.83,-0.14l0.09,0.53a1,1 0 0 0 1.16,0.81l4.93,-0.87a1,1 0 0 0 0.81,-1.16l-3.83,-21.66zm-32.16,-18.16a1,1 0 0 1 1,-1l6,0a1,1 0 0 1 1,1l0,2l-8,0l0,-2zm-11,6a2,2 0 0 1 2,-2l26,0a2,2 0 0 1 2,2l0,3a3,3 0 0 1 -3,3l0,-1a1,1 0 0 0 -1,-1l-4,0a1,1 0 0 0 -1,1l0,1l-12,0l0,-1a1,1 0 0 0 -1,-1l-4,0a1,1 0 0 0 -1,1l0,1a3,3 0 0 1 -3,-3l0,-3zm25,6l0,2l-2,0l0,-2l2,0zm-18,0l0,2l-2,0l0,-2l2,0zm-7,0.97a4.95,4.95 0 0 0 3,1.03l0,1a1,1 0 0 0 1,1l4,0a1,1 0 0 0 1,-1l0,-1l12,0l0,1a1,1 0 0 0 1,1l4,0a1,1 0 0 0 1,-1l0,-1a4.95,4.95 0 0 0 3,-1.03l0,7.54l-7.6,-1.16a9.04,9.04 0 0 0 -4.88,0.62l-2.52,1.07l-2.51,-1.07a9,9 0 0 0 -4.89,-0.62l-7.6,1.16l0,-7.54zm-11.89,26.74l-2.95,-0.52l3.47,-19.7l2.96,0.52l-3.48,19.7zm8.42,6.82a2,2 0 0 1 0.25,-2.82l3.83,-3.21a2,2 0 0 1 2.57,3.06l-3.83,3.22a2,2 0 0 1 -2.82,-0.25zm5.14,6.13a2,2 0 0 1 -2.57,-3.07l4.6,-3.85a2,2 0 0 1 2.57,3.06l-4.6,3.86zm6.16,2.67a2,2 0 0 1 -2.57,-3.07l3.06,-2.57a2,2 0 0 1 2.57,3.07l-3.06,2.57zm6.15,2.67a2,2 0 0 1 -2.57,-3.06l3.07,-2.58a2,2 0 0 1 2.81,0.25l0,0a2,2 0 0 1 -0.24,2.82l-3.07,2.57zm4.69,0.11a1.98,1.98 0 0 1 -2.53,0.69l2.19,-1.84a3.99,3.99 0 0 0 0.57,-0.58a1.99,1.99 0 0 1 -0.23,1.72l0,0.01zm14.94,-11.71a2,2 0 0 1 -2.77,0.56l-8.34,-5.51a1,1 0 1 0 -1.1,1.67l6.67,4.41a2,2 0 0 1 -2.21,3.34l-6.67,-4.42a0.98,0.98 0 0 0 -0.37,-0.15a1,1 0 0 0 -0.73,1.82l5,3.31a2,2 0 0 1 -2.21,3.34l-1.14,-0.76a3.96,3.96 0 0 0 -6.2,-3.42a3.94,3.94 0 0 0 -4.58,-3.3a3.92,3.92 0 0 0 -3.31,-3.95a3.99,3.99 0 0 0 -6.33,-4.38l-3.83,3.22a3.93,3.93 0 0 0 -0.7,0.79a11,11 0 0 1 -2.32,-3.59a1,1 0 0 0 -0.76,-0.61l-1.36,-0.24l2.82,-15.98l2.95,0.52a0.96,0.96 0 0 0 0.33,0l11.45,-1.74a6.98,6.98 0 0 1 3.8,0.48l0.74,0.32l-3.99,1.7a4.99,4.99 0 0 0 -2.2,1.83l-3.76,5.68a3.02,3.02 0 0 0 0.85,4.16a5.01,5.01 0 0 0 6.93,-1.41l1.71,-2.59l3.66,-0.75a8.28,8.28 0 0 0 5.13,5.26a8.9,8.9 0 0 0 1.31,0.36l10.97,7.26a2,2 0 0 1 0.56,2.77zm4.68,-7.63a1,1 0 0 0 -0.76,0.62a10.98,10.98 0 0 1 -2.33,3.6a3.94,3.94 0 0 0 -1.05,-1.03l-8.5,-5.62a8.84,8.84 0 0 0 3.1,-1.27l1.57,-1.03a1,1 0 0 0 -1.1,-1.67l-1.56,1.03a6.98,6.98 0 0 1 -6.2,0.73a6.3,6.3 0 0 1 -3.96,-4.12c-0.06,-0.2 -0.11,-0.42 -0.16,-0.63a1,1 0 0 0 -1.18,-0.77l-4.98,1.02a1,1 0 0 0 -0.63,0.42l-1.94,2.93a3.01,3.01 0 0 1 -4.16,0.85a1.01,1.01 0 0 1 -0.28,-1.39l3.76,-5.67a3,3 0 0 1 1.31,-1.1l9.07,-3.86a7.04,7.04 0 0 1 3.8,-0.48l11.45,1.75a1.06,1.06 0 0 0 0.32,0l2.96,-0.52l2.81,15.97l-1.36,0.24zm3.6,0.93l-3.48,-19.7l2.96,-0.52l3.47,19.7l-2.95,0.52z" data-uid="o_fdc001a14_24" id="svg_19" transform="matrix(8 0 0 8 0 0)"/>
  </g>
 </g>
</svg>